<svg xmlns="http://www.w3.org/2000/svg" id="Layer_2" viewBox="0 0 49.4 49.4"><defs><style>.cls-1{fill:#231f20}</style></defs><g id="Layer_1-2"><path d="M28.62 9.38c-.63-.63-1.66-.63-2.29 0L4.93 30.79c-.24.23-.39.54-.45.86 0 .01-.01.02-.01.03v.02c-.03.07-.08.14-.1.21L.23 43.88c-.52 1.52-.14 3.17.99 4.3.8.8 1.85 1.22 2.93 1.22.46 0 .92-.08 1.37-.23l7.88-2.72-1.06-3.06-7.88 2.72c-.49.17-.83-.1-.95-.22a.9.9 0 0 1-.22-.95l3.46-10.02 9.18 9.18.38.38c.32.32.73.48 1.15.48s.83-.16 1.14-.48l21.41-21.4c.63-.63.63-1.66 0-2.29l-11.4-11.4Zm.3 6.61-12.81 12.8c-.29.3-.68.44-1.06.44s-.77-.14-1.06-.44a1.49 1.49 0 0 1 0-2.12l12.8-12.8c.36-.36.86-.5 1.33-.41.3.05.58.19.8.41s.36.5.4.79c.09.47-.04.97-.4 1.33M47.86 7.76l-6.22-6.22C40.64.55 39.32 0 37.91 0s-2.74.55-3.74 1.54L31.22 4.5c-.31.3-.48.71-.48 1.14s.17.84.48 1.15l11.39 11.39c.32.32.73.48 1.15.48s.83-.16 1.15-.48l2.95-2.95a5.287 5.287 0 0 0 0-7.47" class="cls-1"/></g></svg>